<defs>
<font horiz-adv-x="400" ><font-face
    font-family="josefinsans-light"
    units-per-em="1000"
    panose-1="0 0 0 0 0 0 0 0 0 0"
    ascent="750"
    descent="-250"
    alphabetic="0" />
<missing-glyph horiz-adv-x="300" />
<glyph unicode=" " glyph-name="space" horiz-adv-x="300" />
<glyph unicode="!" glyph-name="exclam" horiz-adv-x="201" d="M100 29Q90 29 82 36T74 55Q74 67 82 74T100 82Q110 82 118 75T126 55Q126 44 118 37T100 29V29ZM86 750H114V166H86V750Z" />
<glyph unicode="&quot;" glyph-name="quotedbl" horiz-adv-x="301" d="M196 472V720H227Q226 657 225 596T223 472H196ZM63 472V720H94Q93 657 92 596T90 472H63Z" />
<glyph unicode="#" glyph-name="numbersign" horiz-adv-x="571" d="M190 400Q185 361 181 323T172 245H328Q333 284 337 322T346 400H190ZM299 0Q306 55 312 109T324 218H168Q162 163 156 109T143 0H115Q122 55 128 109T140 218H28L31 245H144Q149 284 153 322T162
400H51L54 427H166Q172 481 178 535T192 643H220Q213 589 207 535T194 427H350Q356 481 362 535T376 643H404Q397 589 391 535T378 427H507L504 400H374Q369 361 365 323T356 245H484Q484 238 483 232T481 218H352Q346 163 340 109T327 0H299Z" />
<glyph unicode="$" glyph-name="dollar" horiz-adv-x="567" d="M123 527Q123 471 154 443T241 397Q244 395 248 394T258 391V676Q224 674 199 661T157 628T132 581T123 527ZM456 183Q456 223 441 251T401 298T347 329T286 352V20Q319 22 350 34T404 68T442 118T456
183ZM426 644Q421 639 418 633T410 622Q393 637 362 654T286 676V381Q317 370 352 357T416 322T464 267T484 186Q484 143 469 109T426 49T363 10T286 -7V-68H258V-7Q221 -5 191 5T138 30T99 58T73 84L93 104Q106 90 123 76T160 50T205 30T258 20V362Q256 363 253
363T247 366Q228 372 203 381T154 408T114 451T95 517Q93 549 101 581T130 639T181 683T258 703V764H286V703Q321 701 356 688T426 644Z" />
<glyph unicode="%" glyph-name="percent" horiz-adv-x="726" d="M436 112Q436 77 461 52T522 27Q558 27 583 52T608 112Q608 147 583 172T522 197Q486 197 461 172T436 112ZM522 0Q499 0 478 9T442 33T417 68T408 113Q408 136 417 156T441 192T478 215T522 224Q545
224 565 216T602 192T627 157T636 113Q636 89 627 69T602 33T566 9T522 0ZM132 388Q132 353 157 329T218 304Q254 304 279 328T304 388Q304 423 279 448T218 473Q182 473 157 448T132 388ZM218 276Q195 276 174 285T138 309T113 344T104 389Q104 412 113 432T137
468T174 492T218 501Q241 501 261 492T298 468T323 433T332 389Q332 365 323 345T298 309T262 285T218 276ZM201 0Q276 126 350 250T499 500H530Q455 374 381 250T232 0H201Z" />
<glyph unicode="&amp;" glyph-name="ampersand" horiz-adv-x="700" d="M134 187Q134 152 147 122T182 69T235 33T301 20Q346 20 383 40T442 96Q403 161 364 224T284 353Q252 350 225 336T177 300T146 249T134 187ZM497 238V187Q497 162 491 139T473 96Q489 71
504 47T535 -4Q530 -8 525 -11T513 -19Q499 3 486 25T458 70Q431 35 391 14T301 -7Q260 -7 225 8T163 49T121 111T106 187Q106 223 118 255T152 313T203 356T268 379Q251 408 233 437T197 496Q179 526 172 558T169 621T192 679T243 726Q271 743 300 746T358 745T410
729T454 706Q451 700 448 694T443 682Q422 694 400 704T354 719T308 721T261 704Q232 686 216 663T196 613T198 559T221 506Q278 412 335 320T450 133Q459 152 464 172T471 215V271Q472 312 480 333T502 364T531 374T564 375H603V348H549Q518 348 508 324T497 238Z"
/>
<glyph unicode="&apos;" glyph-name="quotesingle" horiz-adv-x="150" d="M62 472V720H93Q92 657 91 596T89 472H62Z" />
<glyph unicode="(" glyph-name="parenleft" d="M141 292Q141 367 155 435T192 561T244 666T306 747Q310 741 314 736T323 724Q294 691 267 646T217 546T182 427T169 292Q169 221 182 157T217 38T266 -62T323 -140Q318 -146 314 -151T306 -163Q274 -130 245 -83T192
23T155 149T141 292Z" />
<glyph unicode=")" glyph-name="parenright" d="M286 291Q286 216 272 148T235 22T182 -83T121 -164Q116 -158 112 -153T104 -141Q133 -108 160 -63T210 37T245 156T258 291Q258 362 245 426T210 545T161 645T104 723Q108 729 112 734T121 746Q152 713 182 666T235
560T272 434T286 291Z" />
<glyph unicode="*" glyph-name="asterisk" horiz-adv-x="335" d="M196 575Q221 561 246 546T298 517Q294 510 290 504T282 490Q256 505 232 520T181 550Q180 521 180 492T179 434H152V550Q126 535 102 521T52 492Q48 499 44 505T36 519Q62 533 87 547T137 576Q112
591 87 606T36 636Q40 642 43 648T50 660L152 600V720H183Q182 690 182 660T181 600Q207 614 233 629T285 659Q289 653 292 647T299 635Q273 620 248 605T196 575Z" />
<glyph unicode="+" glyph-name="plus" horiz-adv-x="543" d="M252 51V218H86V245H252V411H280V245H446V218H280V51H252Z" />
<glyph unicode="," glyph-name="comma" horiz-adv-x="200" d="M134 86Q112 34 91 -17T48 -120H22Q42 -68 60 -17T99 86H134Z" />
<glyph unicode="-" glyph-name="hyphen" horiz-adv-x="300" d="M53 177V204H237V177H53Z" />
<glyph unicode="." glyph-name="period" horiz-adv-x="163" d="M59 26Q59 37 67 45T86 53Q97 53 104 45T112 26Q112 15 105 8T86 0Q75 0 67 7T59 26Z" />
<glyph unicode="/" glyph-name="slash" horiz-adv-x="334" d="M17 -19Q87 171 156 358T295 736H323Q253 546 184 359T45 -19H17Z" />
<glyph unicode="0" glyph-name="zero" horiz-adv-x="616" d="M36 327Q36 380 52 438T101 546T185 626T308 658Q378 658 428 626T511 544T558 437T573 324Q573 253 551 193T491 88T405 18T301 -7Q247 -7 199 19T114 89T57 195T36 327ZM65 328Q65 259 84 203T137
106T214 43T303 20Q349 20 392 41T469 103T524 199T545 323Q545 389 528 445T480 542T404 607T307 631Q254 631 210 609T133 546T83 450T65 328Z" />
<glyph unicode="1" glyph-name="one" horiz-adv-x="254" d="M34 623V650H166V0H138V623H34Z" />
<glyph unicode="2" glyph-name="two" horiz-adv-x="500" d="M122 27H458V0H53Q117 62 177 122T283 239T358 349T386 449Q386 501 371 536T333 592T284 622T233 631Q186 631 156 614T108 573T84 519T77 466Q77 397 117 354Q112 349 108 346T99 338Q76 361 63 393T49
466Q49 506 61 541T96 602T154 643T233 658Q273 658 306 643T364 602T401 539T414 461Q414 405 387 350T318 240T223 133T122 27Z" />
<glyph unicode="3" glyph-name="three" horiz-adv-x="515" d="M173 354Q223 422 272 488T371 622H103V650H424Q377 587 331 526T236 401Q279 400 316 385T382 342T427 278T444 198Q444 155 428 118T383 52T318 8T237 -8Q192 -8 154 10T86 59Q91 64 96 70T106 81Q129
54 162 37T235 19Q272 19 305 33T363 72T402 129T417 198Q417 235 403 267T363 324T305 362T235 376Q218 376 203 370T173 354Z" />
<glyph unicode="4" glyph-name="four" horiz-adv-x="510" d="M375 576Q305 484 235 393T95 210H375V576ZM37 183Q129 302 220 420T403 658V210H500V183H403V0H375V183H37Z" />
<glyph unicode="5" glyph-name="five" horiz-adv-x="543" d="M143 331V650H430V623H171V382Q191 390 211 395T255 401Q297 401 335 385T401 342T445 277T462 198Q462 155 446 118T401 52T335 8T255 -8Q213 -8 177 7T113 49Q118 54 123 58T134 68Q157 45 187 32T253
19Q290 19 323 33T381 72T420 129T435 198Q435 234 421 266T382 322T324 359T253 373Q218 373 189 362T143 331Z" />
<glyph unicode="6" glyph-name="six" horiz-adv-x="520" d="M77 196Q77 159 91 127T129 71T185 33T255 19Q292 19 325 33T382 71T421 127T435 196Q435 233 421 265T383 321T325 359T255 373Q218 373 186 359T129 321T91 265T77 196ZM50 194Q50 266 81 328T160
445T266 546T381 634Q386 628 390 622T400 611Q340 571 294 533T213 459T157 393T122 336Q145 365 179 383T256 401Q299 401 336 385T402 341T446 276T463 196Q463 154 447 117T402 52T337 8T256 -8Q214 -8 177 8T111 51T67 115T50 194Z" />
<glyph unicode="7" glyph-name="seven" horiz-adv-x="469" d="M14 622V650H417Q344 486 271 325T125 0H92Q163 156 232 311T373 622H14Z" />
<glyph unicode="8" glyph-name="eight" horiz-adv-x="510" d="M134 508Q134 485 143 466T169 432T207 410T254 402Q279 402 300 410T338 432T363 465T372 508Q372 533 363 555T338 594T301 621T254 631Q229 631 207 621T169 594T144 555T134 508ZM78 198Q78 162
91 130T128 73T184 34T253 19Q290 19 323 33T381 72T420 129T435 198Q435 234 421 266T382 322T324 359T254 373Q217 373 185 360T129 322T92 266T78 198ZM50 198Q50 232 60 262T89 318T134 361T191 389Q153 404 129 437T105 514Q105 544 116 570T148 615T195 646T252
658Q283 658 309 647T356 615T387 568T399 511Q399 469 377 437T317 389Q348 380 374 362T420 319T451 263T462 198Q462 155 446 118T401 52T335 8T255 -8Q213 -8 176 8T110 52T66 117T50 198Z" />
<glyph unicode="9" glyph-name="nine" horiz-adv-x="525" d="M435 429Q435 466 421 498T383 554T327 592T257 606Q220 606 187 592T130 554T91 498T77 429Q77 392 91 360T129 304T187 266T257 252Q294 252 326 266T383 304T421 360T435 429ZM463 429Q463 357 432
295T353 179T245 79T131 -8Q122 3 113 15Q233 95 299 167T391 290Q368 260 333 243T256 225Q213 225 176 241T110 285T66 350T49 429Q49 471 65 508T110 574T175 618T256 634Q299 634 336 618T402 574T446 509T463 429Z" />
<glyph unicode=":" glyph-name="colon" horiz-adv-x="175" d="M59 276Q59 287 66 295T85 303Q96 303 103 295T111 276Q111 265 104 258T85 250Q74 250 67 257T59 276ZM59 26Q59 37 66 45T85 53Q96 53 103 45T111 26Q111 15 104 8T85 0Q74 0 67 7T59 26Z" />
<glyph unicode=";" glyph-name="semicolon" horiz-adv-x="201" d="M83 276Q83 287 91 295T110 303Q120 303 128 295T136 276Q136 265 128 258T110 250Q99 250 91 257T83 276ZM119 86Q97 34 76 -17T33 -120H7Q27 -68 45 -17T84 86H119Z" />
<glyph unicode="&lt;" glyph-name="less" horiz-adv-x="680" d="M553 21V-15Q443 48 334 111T115 238Q225 301 334 364T553 491V455Q458 401 364 347T175 238Q270 184 364 130T553 21Z" />
<glyph unicode="=" glyph-name="equal" horiz-adv-x="708" d="M606 170V142H100V170H606ZM606 364V336H100V364H606Z" />
<glyph unicode="&gt;" glyph-name="greater" horiz-adv-x="650" d="M115 -15V21Q210 75 304 129T493 238Q398 292 304 346T115 455V491Q225 428 334 365T553 238Q443 175 334 112T115 -15Z" />
<glyph unicode="?" glyph-name="question" horiz-adv-x="452" d="M58 587Q52 589 46 591T33 595Q42 622 59 647T100 691T154 721T221 732Q262 732 298 717T360 675T402 613T417 537Q417 483 391 442T319 369Q301 355 284 346T255 324T235 293T227 242V164H199V261Q199
292 210 311T239 345T281 373T328 408Q360 435 374 467T389 537Q389 573 376 603T341 656T288 692T221 705Q162 705 119 673T58 587ZM213 20Q203 20 195 27T187 46Q187 58 195 65T213 73Q223 73 231 66T239 46Q239 35 231 28T213 20Z" />
<glyph unicode="@" glyph-name="at" horiz-adv-x="990" d="M322 188Q322 153 335 123T370 70T423 34T489 21Q524 21 555 34T608 69T644 122T657 188Q657 223 644 253T609 307T555 343T489 356Q454 356 424 343T371 307T335 254T322 188ZM890 188Q888 130 874 94T840
36T794 8T743 0H659V47Q659 61 659 74T660 102Q651 79 635 60T597 26T547 2T489 -7Q448 -7 413 8T351 50T309 111T294 188Q294 228 309 263T350 325T412 367T489 383Q519 383 545 375T594 351T633 316T659 274Q659 299 660 324T663 375H685V27H748Q799 27 829 65T862
188Q862 266 833 334T753 453T634 533T489 563Q412 563 344 534T226 453T146 334T116 188Q116 111 145 43T225 -75T344 -155T489 -185Q550 -185 605 -166T706 -115Q711 -121 714 -126T723 -136Q673 -172 614 -192T489 -212Q406 -212 333 -181T206 -95T120 33T88
189Q88 272 119 345T205 472T333 558T489 590Q572 590 645 559T772 473T858 345T890 188Z" />
<glyph unicode="A" glyph-name="A" horiz-adv-x="740" d="M379 643L370 670Q339 584 303 502T231 335H509Q477 413 445 489T379 643ZM680 0H652Q619 77 587 154T521 308H219Q187 231 155 154T89 0H60Q138 184 215 366T370 732Q448 548 525 366T680 0Z" />
<glyph unicode="B" glyph-name="B" horiz-adv-x="535" d="M107 673V365H246Q283 365 313 376T365 409T398 459T410 525Q410 565 398 593T363 639T310 665T242 673H107ZM107 338V27H247Q286 27 320 36T380 65T421 113T436 180Q436 221 419 251T372 300T306 329T229
338H107ZM79 0V700H231Q277 700 315 690T380 659T423 605T438 525Q438 463 407 416T312 352Q342 346 369 332T418 296T451 245T464 180Q464 135 446 102T398 46T330 12T249 0H79Z" />
<glyph unicode="C" glyph-name="C" horiz-adv-x="670" d="M585 65L601 42Q561 19 516 6T419 -8Q345 -8 280 20T167 96T90 210T62 349Q62 423 90 488T166 602T280 679T419 708Q470 708 515 695T602 658Q596 648 586 635Q511 681 419 681Q351 681 291 655T187 583T116
478T90 348Q90 280 116 220T186 116T289 45T417 19Q463 19 505 31T585 65Z" />
<glyph unicode="D" glyph-name="D" horiz-adv-x="652" d="M81 700H223Q295 700 359 676T471 606T547 495T575 350Q575 291 555 229T488 116T369 33T189 0H81V700ZM109 673V28H201Q292 28 357 56T465 131T528 234T548 350Q548 424 523 484T453 586T351 650T226 673H109Z" />
<glyph unicode="E" glyph-name="E" horiz-adv-x="601" d="M90 0V700H500V673H118V366H461V339H118V27H514V0H90Z" />
<glyph unicode="F" glyph-name="F" horiz-adv-x="587" d="M90 0V700H500V673H118V366H461V339H118V0H90Z" />
<glyph unicode="G" glyph-name="G" horiz-adv-x="678" d="M415 273V300H545Q575 300 588 291T601 252V42Q561 19 516 6T419 -8Q345 -8 280 20T167 96T90 210T62 349Q62 423 90 488T166 602T280 679T419 708Q470 708 515 695T602 658Q596 648 586 635Q511 681 419
681Q351 681 291 655T187 583T116 478T90 348Q90 280 116 220T186 116T289 45T417 19Q501 19 573 59V192V249Q573 260 567 266T545 273H415Z" />
<glyph unicode="H" glyph-name="H" horiz-adv-x="700" d="M99 0V700H127V366H573V700H604Q604 524 603 350T601 0H573V339H127V0H99Z" />
<glyph unicode="I" glyph-name="I" horiz-adv-x="238" d="M105 700H133V0H105V700Z" />
<glyph unicode="J" glyph-name="J" horiz-adv-x="302" d="M18 -142V-115Q54 -113 85 -99T138 -58T173 7T186 93V700H214V90Q214 34 199 -8T157 -80T94 -125T18 -142Z" />
<glyph unicode="K" glyph-name="K" horiz-adv-x="600" d="M548 0H512Q432 102 354 202T194 404Q170 381 147 359T99 314Q99 235 99 157T100 0H72V700H100V373Q99 365 99 359T98 344Q103 349 107 354T116 364Q204 449 291 532T468 700H506Q432 630 360 561T214
422Q299 316 381 211T548 0Z" />
<glyph unicode="L" glyph-name="L" horiz-adv-x="593" d="M90 0V700H118V27H514V0H90Z" />
<glyph unicode="M" glyph-name="M" horiz-adv-x="937" d="M100 732Q192 613 283 495T466 257Q558 376 649 494T832 732V0H804V438V610Q804 621 804 631T806 652Q722 539 637 429T466 207Q397 298 329 386T192 565L137 637Q135 641 132 644T126 652Q127 641 127
631T128 610V0H100V732Z" />
<glyph unicode="N" glyph-name="N" horiz-adv-x="813" d="M711 700V-32Q568 136 428 302T144 638Q139 645 135 651T125 664Q126 656 126 648T128 632V0H100V732Q243 561 383 395T667 58Q672 51 676 45T686 32Q685 40 685 48T683 64V700H711Z" />
<glyph unicode="O" glyph-name="O" horiz-adv-x="840" d="M62 349Q62 423 90 488T166 602T280 679T419 708Q493 708 558 680T672 603T749 489T778 349Q778 275 750 210T673 97T559 20T419 -8Q345 -8 280 20T167 96T90 210T62 349ZM90 348Q90 280 116 220T186 116T289
45T417 19Q485 19 545 45T651 116T723 221T750 349Q750 417 724 477T653 583T548 654T419 681Q351 681 291 655T187 583T116 478T90 348Z" />
<glyph unicode="P" glyph-name="P" horiz-adv-x="455" d="M107 362H216Q271 362 307 377T364 415T394 466T403 520Q403 550 389 578T350 627T291 660T217 673H107V362ZM79 0V700H224Q254 700 290 690T357 659T410 603T431 520Q431 435 376 385T218 335H107V0H79Z" />
<glyph unicode="Q" glyph-name="Q" horiz-adv-x="842" d="M90 348Q90 280 116 220T186 116T289 45T417 19Q485 19 545 45T651 116T723 221T750 349Q750 417 724 477T652 583T547 654T419 681Q351 681 291 655T187 583T116 478T90 348ZM62 349Q62 423 90 488T166
602T280 679T419 708Q493 708 558 680T672 603T749 489T778 349Q778 295 763 245T719 154T651 80T565 27H800V0H493Q455 -8 419 -8Q345 -8 280 20T167 96T90 210T62 349Z" />
<glyph unicode="R" glyph-name="R" horiz-adv-x="501" d="M107 362H216Q271 362 307 377T364 415T394 466T403 520Q403 550 389 578T350 627T291 660T217 673H107V362ZM79 0V700H224Q254 700 290 690T357 659T410 603T431 520Q431 449 393 402T280 340Q320 255
360 170T441 0H411Q371 85 331 169T251 338Q231 335 210 335H107V0H79Z" />
<glyph unicode="S" glyph-name="S" horiz-adv-x="548" d="M426 644Q421 639 418 633T410 622Q401 630 388 639T357 657T317 671T270 677Q233 677 206 665T160 631T132 583T123 527Q123 497 132 476T158 439T199 413T253 392Q284 381 324 369T399 334T459 276T484
186Q484 142 468 106T422 45T355 6T273 -8Q234 -8 202 2T144 27T101 57T73 84L93 104Q107 89 125 74T165 47T213 27T270 19Q306 19 339 30T399 63T440 114T456 183Q456 229 436 259T386 310T319 342T250 365Q232 370 206 379T156 406T115 450T95 517Q93 550 102
583T133 644T189 687T272 704Q310 704 348 691T426 644Z" />
<glyph unicode="T" glyph-name="T" horiz-adv-x="553" d="M553 700V673H290V0H262V673H0V700H553Z" />
<glyph unicode="U" glyph-name="U" horiz-adv-x="652" d="M327 -8Q277 -8 235 7T163 51T115 125T97 226V700H125V229Q125 178 140 139T182 74T246 33T327 19Q371 19 408 33T472 73T514 139T530 229V700H558V226Q558 169 540 125T491 52T418 7T327 -8Z" />
<glyph unicode="V" glyph-name="V" horiz-adv-x="722" d="M645 700H674Q596 516 519 334T364 -32Q286 152 209 334T54 700H83Q151 539 218 379T355 57L364 30L373 57Q442 218 509 378T645 700Z" />
<glyph unicode="W" glyph-name="W" horiz-adv-x="1108" d="M1018 700H1046Q968 516 891 334T736 -32L559 385Q557 391 555 397T550 410Q506 299 459 189T364 -32Q286 152 209 334T54 700H83Q150 539 217 379T355 57L364 30Q401 135 447 236T535 441Q508 507 481
570T426 700H455Q523 539 590 379T727 57L736 30L745 57Q814 218 881 378T1018 700Z" />
<glyph unicode="X" glyph-name="X" horiz-adv-x="700" d="M324 359Q268 445 213 530T103 700H136Q186 623 235 547T335 395Q337 391 339 387T344 379Q346 383 348 387T353 395Q402 471 451 547T549 700H582Q527 613 472 528T361 355Q419 265 476 178T592 0H558L378
275Q368 289 360 305T340 336Q338 332 336 328T331 320Q280 239 229 160T126 0H93Q151 91 208 180T324 359Z" />
<glyph unicode="Y" glyph-name="Y" horiz-adv-x="638" d="M334 263V0H302V264Q236 373 172 482T41 700H75Q133 603 191 507T306 314L318 287H319Q322 294 324 300T330 314Q388 411 445 507T560 700H594Q529 590 464 482T334 263Z" />
<glyph unicode="Z" glyph-name="Z" horiz-adv-x="700" d="M157 700H611V673Q486 511 364 350T117 27H640V0H81V27Q206 189 328 350T575 673H161Q130 673 114 683T98 722V735H127V723Q127 712 133 706T157 700Z" />
<glyph unicode="[" glyph-name="bracketleft" horiz-adv-x="338" d="M83 -149V746H252V719H112V-122H252V-149H83Z" />
<glyph unicode="\" glyph-name="backslash" horiz-adv-x="333" d="M44 736Q114 546 183 359T322 -19H292Q222 171 153 358T14 736H44Z" />
<glyph unicode="]" glyph-name="bracketright" horiz-adv-x="342" d="M251 746V-149H82V-122H222V719H82V746H251Z" />
<glyph unicode="^" glyph-name="asciicircum" horiz-adv-x="470" d="M232 660Q262 615 292 570T352 479H327Q303 514 280 548T232 617Q208 582 185 548T137 479H112Q142 524 172 569T232 660Z" />
<glyph unicode="_" glyph-name="underscore" horiz-adv-x="600" d="M500 0H100V27H500V0Z" />
<glyph unicode="`" glyph-name="grave" horiz-adv-x="200" d="M8 612Q31 579 53 546T98 479H74Q50 512 26 545T-21 612H8Z" />
<glyph unicode="a" glyph-name="a" horiz-adv-x="500" d="M77 188Q77 153 90 123T125 70T178 34T244 21Q279 21 310 34T364 69T400 122T413 188Q413 223 400 253T364 307T310 343T244 356Q209 356 179 343T126 307T90 254T77 188ZM49 188Q49 228 64 263T105 325T167
367T244 383Q274 383 301 375T350 351T389 316T415 274Q415 299 416 324T419 375H440V0H415V50V102Q398 57 353 26T244 -7Q203 -7 168 8T106 50T64 111T49 188Z" />
<glyph unicode="b" glyph-name="b" horiz-adv-x="528" d="M445 188Q445 223 432 253T397 307T344 343T278 356Q243 356 212 343T159 307T123 254T110 188Q110 153 123 123T158 70T212 34T278 21Q313 21 343 34T396 69T432 122T445 188ZM473 188Q473 147 458 112T417
50T355 9T278 -7Q216 -6 170 25T107 102Q107 88 107 76T108 50V0H82V750H110V324Q109 311 109 299T108 274Q116 296 132 316T171 351T220 374T278 383Q319 383 354 368T416 326T458 264T473 188Z" />
<glyph unicode="c" glyph-name="c" horiz-adv-x="385" d="M337 57Q341 52 345 47T355 36Q329 16 298 5T231 -7Q190 -7 155 8T93 50T52 111T36 188Q36 228 51 264T93 326T154 367T231 383Q267 383 298 372T355 340Q350 335 346 330T337 319Q315 336 288 346T231
356Q196 356 166 343T113 307T77 254T64 188Q64 153 77 123T112 70T165 34T231 21Q262 21 288 30T337 57Z" />
<glyph unicode="d" glyph-name="d" horiz-adv-x="523" d="M82 188Q82 153 95 123T130 70T183 34T249 21Q284 21 315 34T368 69T404 122T417 188Q417 223 404 253T369 307T315 343T249 356Q214 356 184 343T131 307T95 254T82 188ZM54 188Q54 228 69 264T110 326T172
367T249 383Q279 383 306 375T356 351T394 316T419 274Q419 287 419 299T417 324V750H445V0H419V50Q419 63 419 75T420 102Q403 57 358 26T249 -7Q208 -7 173 8T111 50T69 111T54 188Z" />
<glyph unicode="e" glyph-name="e" horiz-adv-x="451" d="M231 356Q197 356 168 344T116 310T80 259T65 197Q64 183 65 171T69 147Q144 177 217 206T366 266Q347 306 312 331T231 356ZM402 251Q321 218 240 186T78 121Q97 76 137 49T231 21Q265 21 294 33T346
66Q350 61 354 56T363 46Q337 21 304 7T231 -7Q190 -7 155 8T93 50T52 111T36 188Q36 228 51 264T93 326T154 367T231 383Q291 383 336 346T402 251Z" />
<glyph unicode="f" glyph-name="f" horiz-adv-x="283" d="M22 347V374H87V518Q87 573 102 616T144 688T206 732T283 750V723Q249 723 219 709T165 668T129 605T115 520V374H242V347H115V0H87V347H22Z" />
<glyph unicode="g" glyph-name="g" horiz-adv-x="518" d="M77 188Q77 153 90 123T125 70T178 34T244 21Q279 21 310 34T364 69T400 122T413 188Q413 223 400 253T364 307T310 343T244 356Q209 356 179 343T126 307T90 254T77 188ZM419 375H440V-18V-26Q440 -79
426 -120T386 -189T326 -233T253 -250Q211 -248 169 -235T100 -190Q105 -185 110 -181T121 -171Q144 -198 180 -210T252 -222Q285 -222 314 -208T365 -169T400 -107T413 -27V47Q413 61 414 74T415 101Q406 79 390 60T351 26T302 3T244 -6Q203 -6 168 9T106 50T64
112T49 188Q49 228 64 263T105 325T167 367T244 383Q274 383 301 375T350 351T389 316T415 274Q415 299 416 324T419 375Z" />
<glyph unicode="h" glyph-name="h" horiz-adv-x="491" d="M110 750H138V322L135 277Q155 325 198 353T299 382Q353 382 384 351T418 270V0H390V268Q388 303 365 328T299 355Q267 355 238 345T186 315T151 270T138 212V0H110V750Z" />
<glyph unicode="i" glyph-name="i" horiz-adv-x="183" d="M68 504Q68 515 76 523T95 531Q105 531 113 523T121 504Q121 493 113 486T95 478Q84 478 76 485T68 504ZM108 0H80V375H108V0Z" />
<glyph unicode="j" glyph-name="j" horiz-adv-x="225" d="M92 504Q92 515 99 523T118 531Q129 531 137 523T145 504Q145 493 137 486T118 478Q107 478 100 485T92 504ZM70 -180Q65 -175 60 -171T49 -161Q74 -135 89 -97T104 -8V375H132V-6Q132 -64 116 -107T70 -180Z" />
<glyph unicode="k" glyph-name="k" horiz-adv-x="449" d="M327 384Q332 379 335 375T344 366Q306 331 273 299T202 231L370 0H337Q298 54 259 106T180 212Q163 196 146 180T111 147V0H84V750H111V183Q167 235 219 283T327 384Z" />
<glyph unicode="l" glyph-name="l" horiz-adv-x="185" d="M108 0H80V750H108V0Z" />
<glyph unicode="m" glyph-name="m" horiz-adv-x="796" d="M110 375H136V331Q135 317 135 304T135 277Q155 325 198 353T299 382Q350 382 381 355T417 282Q438 327 481 354T580 382Q634 382 665 351T698 270V0H670V268Q668 303 645 328T579 355Q547 355 519 345T468
316T433 273T418 217V0H390V268Q388 303 365 328T299 355Q267 355 238 345T186 315T151 270T138 212V0H110V375Z" />
<glyph unicode="n" glyph-name="n" horiz-adv-x="495" d="M110 375H136V331Q135 317 135 304T135 277Q155 325 199 353T299 382Q353 382 384 351T418 270V0H390V268Q388 303 365 328T299 355Q267 355 238 345T186 315T151 270T138 212V0H110V375Z" />
<glyph unicode="o" glyph-name="o" horiz-adv-x="469" d="M36 188Q36 228 51 264T93 326T154 368T231 384Q272 384 308 369T370 327T412 264T428 188Q428 147 413 112T371 50T308 9T231 -7Q190 -7 155 8T93 50T52 111T36 188ZM64 188Q64 153 77 123T112 70T165
34T231 21Q266 21 296 34T350 69T386 122T399 188Q399 223 386 253T350 307T297 343T231 356Q196 356 166 343T113 307T77 254T64 188Z" />
<glyph unicode="p" glyph-name="p" horiz-adv-x="525" d="M430 187Q430 222 417 252T382 305T329 341T263 354Q228 354 197 341T144 306T108 253T95 187Q95 152 108 122T143 68T197 32T263 19Q298 19 328 32T381 68T417 121T430 187ZM458 187Q458 146 443 111T402
49T340 8T263 -8Q232 -8 205 0T156 24T117 58T93 100Q93 88 94 76T96 53V-250H67V375H92V271Q101 293 117 313T155 349T205 373T263 382Q304 382 339 367T401 325T443 263T458 187Z" />
<glyph unicode="q" glyph-name="q" horiz-adv-x="512" d="M80 187Q80 152 93 122T128 68T182 32T248 19Q283 19 313 32T367 68T403 121T416 187Q416 222 403 252T367 305T314 341T248 354Q213 354 182 341T129 306T93 253T80 187ZM52 187Q52 227 67 263T109 325T171
366T248 382Q278 382 305 373T354 349T393 314T419 271V375H444V-250H415V53Q416 64 416 76T418 100Q409 78 393 59T355 24T306 1T248 -8Q207 -8 172 7T110 49T68 110T52 187Z" />
<glyph unicode="r" glyph-name="r" horiz-adv-x="331" d="M295 355Q263 354 235 343T185 313T151 268T138 212V0H110V375H136V331Q135 317 135 304T135 277Q157 326 201 353T296 382L295 355Z" />
<glyph unicode="s" glyph-name="s" horiz-adv-x="351" d="M276 337Q272 332 268 327T259 317Q245 334 221 343T174 353Q162 353 149 349T124 337T106 315T98 282Q98 256 112 242T148 219T195 203T241 185T277 155T291 103Q291 85 285 66T264 30T227 3T172 -8Q144
-8 111 2T57 39Q62 44 66 48T76 58Q83 49 95 42T120 30T148 22T176 19Q188 19 203 24T231 39T254 64T263 100Q263 128 249 143T214 168T167 184T121 201T85 228T70 278Q70 303 79 322T104 354T138 373T175 380Q196 380 225 371T276 337Z" />
<glyph unicode="t" glyph-name="t" horiz-adv-x="282" d="M130 619H157V370H279V343H157V0H130V343H42V370H130V619Z" />
<glyph unicode="u" glyph-name="u" horiz-adv-x="529" d="M418 -2H390V53L393 98Q373 50 329 22T229 -7Q175 -7 144 24T110 105V375H138V107Q140 72 163 47T229 20Q261 20 290 30T342 60T377 105T390 163V375H418V-2Z" />
<glyph unicode="v" glyph-name="v" horiz-adv-x="500" d="M256 -23Q154 177 54 375H83Q126 290 170 204T256 30Q297 117 341 203T429 375H457Q406 275 357 176T256 -23Z" />
<glyph unicode="w" glyph-name="w" horiz-adv-x="772" d="M376 278Q364 302 352 326T328 375H357Q399 289 442 203T527 30Q569 117 611 203T697 375H726Q626 176 527 -23Q493 46 459 113T391 250Q357 181 323 114T255 -23Q156 176 56 375H85Q127 289 170 203T255
30Q284 93 315 154T376 278Z" />
<glyph unicode="x" glyph-name="x" horiz-adv-x="403" d="M178 190Q144 237 110 282T42 375H77L200 207Q230 249 260 290T320 374H354Q319 326 285 279T217 183L352 0H318Q287 42 257 83T195 167Q165 125 136 84T76 0H41Q76 48 109 95T178 190Z" />
<glyph unicode="y" glyph-name="y" horiz-adv-x="489" d="M139 -250H107Q139 -188 169 -127T231 -3L42 375H73Q117 288 161 201T247 26Q288 114 332 201T420 375H451Q373 218 295 63T139 -250Z" />
<glyph unicode="z" glyph-name="z" horiz-adv-x="451" d="M122 375H384V348Q304 267 232 188T80 27H402V0H42V27Q122 108 194 187T346 348H126Q95 348 79 358T63 397V410H92V398Q92 387 98 381T122 375Z" />
<glyph unicode="{" glyph-name="braceleft" horiz-adv-x="282" d="M30 281V316Q54 317 69 330T94 364T106 407T109 451V628Q109 674 117 698T137 732T166 744T201 746H244V719H189Q158 719 148 695T137 608V463Q137 419 132 391T117 344T96 316T71 299Q84 292
96 282T117 253T131 206T137 135V-11Q137 -72 147 -96T189 -121H244V-148H201Q181 -148 164 -147T135 -132T116 -88T109 -1V146Q109 166 106 189T94 233T70 266T30 281Z" />
<glyph unicode="|" glyph-name="bar" horiz-adv-x="229" d="M97 -232V700H125V-232H97Z" />
<glyph unicode="}" glyph-name="braceright" horiz-adv-x="320" d="M290 316V281Q260 279 244 260T221 215T212 162T211 117V-30Q211 -76 203 -100T183 -135T154 -147T119 -148H76V-121H131Q162 -121 172 -97T183 -11V165Q183 198 190 221T207 259T228 284T249
299Q236 306 224 316T203 344T189 390T183 463V608Q183 670 173 694T131 719H76V746H119Q137 746 153 745T182 734T203 699T211 628V480Q211 462 212 435T220 382T244 337T290 316Z" />
<glyph unicode="~" glyph-name="asciitilde" horiz-adv-x="489" d="M266 494Q250 511 239 517T213 523Q205 523 195 521T175 513T158 497T149 470Q144 471 140 471T130 472Q131 491 139 504T159 526T185 539T214 543Q234 543 251 533T284 506Q300 489 312 483T338
477Q345 477 355 479T375 487T392 503T401 530Q406 529 411 529T421 528Q420 509 412 496T392 474T366 461T337 457Q317 457 300 467T266 494Z" />
<glyph unicode="&#xa0;" glyph-name="space" horiz-adv-x="300" />
<glyph unicode="&#xa1;" glyph-name="exclamdown" horiz-adv-x="200" d="M100 511Q90 511 82 504T74 485Q74 473 82 466T100 458Q110 458 118 465T126 485Q126 496 118 503T100 511V511ZM86 -210H114V374H86V-210Z" />
<glyph unicode="&#xa2;" glyph-name="cent" horiz-adv-x="385" d="M64 188Q64 156 75 128T105 78T151 42T208 23V352Q177 349 151 335T106 299T75 249T64 188ZM337 57Q341 52 345 47T355 36Q304 -4 236 -6V-68H208V-4Q171 0 140 16T85 58T49 117T36 188Q36 225
49 258T85 318T139 360T208 381V438H236V383Q270 382 300 371T355 340Q350 335 346 330T337 319Q293 353 236 355V21Q265 22 290 31T337 57Z" />
<glyph unicode="&#xa3;" glyph-name="sterling" horiz-adv-x="574" d="M128 27H327H360Q421 27 445 37T470 79V134H498V86Q498 69 496 54T483 26T448 7T380 0H27V27H71Q88 27 98 33T114 56T121 99T123 167V303H58V331H123V500Q123 570 169 602T294 634Q361 634
396 609T452 543Q447 540 442 537T432 531Q421 551 409 565T381 589T344 602T294 607Q253 607 226 599T182 576T158 542T151 499V331H277V303H151V152V120Q151 91 147 66T128 27Z" />
<glyph unicode="&#xa4;" glyph-name="currency" horiz-adv-x="500" d="M137 361Q137 338 145 318T169 283T204 259T247 250Q270 250 290 259T325 283T348 318T357 361Q357 384 349 404T325 439T290 463T247 472Q224 472 204 463T169 439T146 404T137 361ZM109
361Q109 385 117 406T139 446L104 481L124 501L159 466Q177 481 199 490T247 499Q273 499 295 490T335 465L370 500L390 481L355 446Q385 410 385 361Q385 335 376 313T353 273L390 235L370 215L332 253Q296 223 247 223Q223 223 201 230T162 252L124 214L104 234L142
272Q109 310 109 361Z" />
<glyph unicode="&#xa5;" glyph-name="yen" horiz-adv-x="638" d="M483 127V100H334V0H302V100H150V127H302V263H150V290H286Q224 393 164 495T41 700H75Q133 603 190 507T306 314L318 287H319Q322 294 324 300T330 314Q388 411 445 507T560 700H594Q532 597 472
495T349 290H483V263H334V127H483Z" />
<glyph unicode="&#xa6;" glyph-name="brokenbar" horiz-adv-x="215" d="M123 -233H95V117H123V-233ZM123 350H95V700H123V350Z" />
<glyph unicode="&#xa7;" glyph-name="section" horiz-adv-x="500" d="M177 321Q189 294 214 281T268 269Q287 270 302 279T329 303T345 334T348 369Q345 389 336 405T312 432T281 448T247 452Q221 450 204 437T177 404T168 363T177 321ZM242 153Q213 201 194 235T156
300Q144 321 141 344T143 389T161 430T194 462Q219 476 246 476T298 465Q283 490 269 515T240 567Q225 593 218 612T210 645T213 669T224 688Q235 703 257 715T297 736Q300 731 303 725T311 713Q298 705 287 699T263 685Q237 670 239 645T271 569Q293 531 314 494T358
418Q371 397 374 375T372 330T353 290T319 258Q295 243 268 243T215 254L275 152Q290 126 297 107T305 74T302 49T291 30Q279 14 257 3T218 -18Q215 -12 212 -6T204 6Q217 13 228 19T252 33Q278 48 275 74T242 153Z" />
<glyph unicode="&#xa8;" glyph-name="dieresis" horiz-adv-x="370" d="M241 504Q241 515 248 523T267 531Q278 531 285 523T293 504Q293 493 286 486T267 478Q256 478 249 485T241 504ZM75 504Q75 515 83 523T102 531Q113 531 120 523T128 504Q128 493 121 486T102
478Q91 478 83 485T75 504Z" />
<glyph unicode="&#xa9;" glyph-name="copyright" horiz-adv-x="793" d="M399 135Q448 135 491 153T567 202T618 277T637 371Q637 423 619 466T568 542T492 592T399 610Q350 610 307 592T232 542T182 467T163 371Q163 321 181 278T232 203T307 153T399 135ZM400
117Q346 117 299 136T218 189T163 270T143 372Q143 427 163 474T217 555T299 609T400 628Q454 628 501 609T582 556T637 474T657 372Q657 317 637 270T583 189T501 136T400 117ZM480 246L488 236Q470 225 449 219T405 213Q372 213 343 226T291 261T257 312T244
375Q244 409 256 438T291 490T342 524T405 537Q450 537 488 515Q486 512 485 510T481 504Q448 525 405 525Q375 525 348 513T301 481T269 433T257 374Q257 343 268 316T300 269T347 238T404 226Q446 226 480 246Z" />
<glyph unicode="&#xaa;" glyph-name="ordfeminine" horiz-adv-x="585" d="M114 442Q114 416 123 394T148 356T187 331T234 321Q259 321 281 330T320 356T346 394T356 442Q356 467 347 489T321 527T282 553T234 563Q209 563 187 554T149 528T123 489T114 442ZM93
442Q93 470 104 496T134 541T178 571T234 582Q256 582 275 576T311 559T339 534T357 504Q357 522 358 540T360 576H375V306H357V342V380Q345 347 312 325T234 301Q204 301 179 312T134 342T104 386T93 442Z" />
<glyph unicode="&#xab;" glyph-name="guillemotleft" horiz-adv-x="601" d="M459 77L288 239Q331 280 373 319T459 400V368Q427 336 396 304T332 239Q364 206 395 174T459 109V77ZM288 77L117 239Q160 280 202 319T288 400V367Q256 335 225 303T161 239Q193 206
224 174T288 109V77Z" />
<glyph unicode="&#xac;" glyph-name="logicalnot" horiz-adv-x="559" d="M432 148V219H100V242H460V148H432Z" />
<glyph unicode="&#xae;" glyph-name="registered" horiz-adv-x="801" d="M399 135Q448 135 491 153T567 202T618 277T637 371Q637 423 619 466T568 542T492 592T399 610Q350 610 307 592T232 542T182 467T163 371Q163 321 181 278T232 203T307 153T399 135ZM400
117Q346 117 299 136T218 189T163 270T143 372Q143 427 163 474T217 555T299 609T400 628Q454 628 501 609T582 556T637 474T657 372Q657 317 637 270T583 189T501 136T400 117ZM345 381H396Q422 381 439 388T466 406T480 431T484 456Q484 485 459 506T396 528H345V381ZM331
210V541H400Q414 541 431 537T463 522T488 495T498 456Q498 422 480 400T426 371Q445 330 464 290T502 210H488Q469 250 451 289T413 370Q408 369 403 369T393 368H345V210H331Z" />
<glyph unicode="&#xaf;" glyph-name="macron" horiz-adv-x="399" d="M85 489V511H315V489H85Z" />
<glyph unicode="0;" glyph-name="degree" horiz-adv-x="282" d="M138 501Q163 501 180 517T197 560Q197 585 180 602T138 619Q113 619 96 602T78 560Q78 534 95 518T138 501ZM56 559Q56 594 79 617T138 641Q172 641 195 618T219 559Q219 525 196 502T138 479Q103
479 80 502T56 559Z" />
<glyph unicode="1;" glyph-name="plusminus" horiz-adv-x="524" d="M252 211V378H86V405H252V571H280V405H446V378H280V211H252ZM446 129H86V156H446V129Z" />
<glyph unicode="2;" glyph-name="twosuperior" horiz-adv-x="398" d="M136 388H303V375H102Q134 406 163 435T216 493T253 547T267 597Q267 622 260 639T241 667T216 682T191 687Q168 687 153 679T130 658T118 632T114 605Q114 571 134 550Q131 547 129 546T125
542Q114 553 107 569T100 605Q100 625 106 642T123 672T152 692T191 700Q211 700 227 693T256 672T274 641T281 603Q281 575 268 548T233 494T187 441T136 388Z" />
<glyph unicode="3;" glyph-name="threesuperior" horiz-adv-x="419" d="M135 554Q160 588 184 620T233 686H101V700H259Q236 669 213 639T166 577Q188 577 206 570T239 549T261 517T269 478Q269 456 261 438T239 406T207 384T167 376Q145 376 126 385T92 409Q95
412 97 414T102 420Q114 407 130 398T166 389Q184 389 200 396T229 416T248 444T256 478Q256 496 249 512T229 539T201 558T166 565Q157 565 150 562T135 554Z" />
<glyph unicode="4;" glyph-name="acute" horiz-adv-x="229" d="M100 479Q123 512 145 545T190 612H220Q196 579 172 546T125 479H100Z" />
<glyph unicode="5;" glyph-name="mu" horiz-adv-x="545" d="M418 -2H390V53L393 98Q373 50 329 22T229 -7Q197 -7 174 5T138 39V-201H110V375H138V107Q140 72 163 47T229 20Q261 20 290 30T342 60T377 105T390 163V375H418V-2Z" />
<glyph unicode="6;" glyph-name="paragraph" horiz-adv-x="501" d="M229 0H201V423Q167 423 137 435T85 470T51 522T38 586Q38 620 50 650T85 702T137 737T201 750H392V0H364V723H229V0Z" />
<glyph unicode="7;" glyph-name="periodcentered" horiz-adv-x="164" d="M59 280Q59 291 67 299T86 307Q97 307 104 299T112 280Q112 269 105 262T86 254Q75 254 67 261T59 280Z" />
<glyph unicode="8;" glyph-name="cedilla" horiz-adv-x="452" d="M191 0H213V-6Q213 -20 217 -28T227 -43T240 -53T254 -61Q276 -76 285 -95T295 -130Q295 -180 270 -204T207 -228Q179 -228 156 -213T121 -167Q126 -165 131 -163T142 -159Q148 -179 165 -192T205
-205Q235 -205 253 -185T271 -136Q271 -110 259 -96T231 -71T204 -50T191 -20V0Z" />
<glyph unicode="9;" glyph-name="onesuperior" horiz-adv-x="254" d="M68 688V700H128V401H115V688H68Z" />
<glyph unicode="a;" glyph-name="ordmasculine" horiz-adv-x="469" d="M91 442Q91 470 102 496T132 541T176 572T232 583Q261 583 287 572T332 542T362 496T374 442Q374 412 363 387T332 342T287 312T232 301Q202 301 177 312T132 342T102 386T91 442ZM111
442Q111 416 120 394T146 356T184 331T232 321Q257 321 279 330T317 356T343 394T353 442Q353 467 344 489T318 527T279 553T232 563Q206 563 184 554T146 528T121 489T111 442Z" />
<glyph unicode="b;" glyph-name="guillemotright" horiz-adv-x="601" d="M117 77L288 239Q245 280 203 319T117 400V368Q149 336 180 304T244 239Q212 206 181 174T117 109V77ZM288 77L459 239Q416 280 374 319T288 400V367Q320 335 351 303T415 239Q383 206
352 174T288 109V77Z" />
<glyph unicode="c;" glyph-name="onequarter" horiz-adv-x="968" d="M287 -19Q357 171 426 358T565 735H593Q523 545 454 358T315 -19H287ZM753 429Q701 360 649 293T545 156H753V429ZM501 136Q570 225 637 313T773 490V156H845V136H773V0H753V136H501ZM135
676V695H229V234H209V676H135Z" />
<glyph unicode="d;" glyph-name="onehalf" horiz-adv-x="1069" d="M121 676V695H215V234H195V676H121ZM630 19H868V0H581Q627 44 669 86T744 169T797 246T817 318Q817 354 807 379T780 419T745 440T709 446Q676 446 654 434T620 405T603 368T598 330Q598 281
627 250Q623 247 621 245T614 239Q598 255 589 278T579 330Q579 358 587 382T612 425T653 454T709 465Q737 465 760 455T801 426T827 382T837 326Q837 286 818 247T769 170T702 94T630 19ZM287 -19Q357 171 426 358T565 735H593Q523 545 454 358T315 -19H287Z"
/>
<glyph unicode="e;" glyph-name="threequarters" horiz-adv-x="1276" d="M217 479Q256 532 294 583T370 686H163V708H411Q375 659 339 612T266 516Q299 515 328 503T379 470T413 421T426 359Q426 326 414 297T380 247T329 213T267 200Q232 200 203 214T150
252Q154 255 158 260T166 269Q183 248 209 235T265 221Q294 221 319 232T364 262T394 306T406 359Q406 387 395 412T364 456T320 485T265 496Q252 496 240 492T217 479ZM457 -19Q527 171 596 358T735 736H763Q693 546 624 359T485 -19H457ZM951 429Q899 360 847
293T743 156H951V429ZM700 136Q768 225 836 313T972 490V156H1044V136H972V0H951V136H700Z" />
<glyph unicode="f;" glyph-name="questiondown" horiz-adv-x="418" d="M395 -48Q401 -50 407 -52T420 -56Q411 -83 394 -108T353 -152T299 -182T232 -193Q191 -193 155 -178T93 -136T51 -74T36 2Q36 56 62 97T134 170Q152 184 169 193T198 215T218 246T226
297V375H254V278Q254 247 243 228T214 194T172 166T125 131Q93 104 79 72T64 2Q64 -34 77 -64T112 -117T165 -153T232 -166Q291 -166 334 -134T395 -48ZM240 519Q250 519 258 512T266 493Q266 481 258 474T240 466Q230 466 222 473T214 493Q214 504 222 511T240
519Z" />
<glyph unicode="0;" glyph-name="Agrave" horiz-adv-x="740" d="M379 643L370 670Q339 584 303 502T231 335H509Q477 413 445 489T379 643ZM680 0H652Q619 77 587 154T521 308H219Q187 231 155 154T89 0H60Q138 184 215 366T370 732Q448 548 525 366T680 0ZM298
883Q321 850 343 817T388 750H364Q340 783 316 816T269 883H298Z" />
<glyph unicode="1;" glyph-name="Aacute" horiz-adv-x="740" d="M379 643L370 670Q339 584 303 502T231 335H509Q477 413 445 489T379 643ZM680 0H652Q619 77 587 154T521 308H219Q187 231 155 154T89 0H60Q138 184 215 366T370 732Q448 548 525 366T680 0ZM353
750Q376 783 398 816T443 883H473Q449 850 425 817T378 750H353Z" />
<glyph unicode="2;" glyph-name="Acircumflex" horiz-adv-x="740" d="M379 643L370 670Q339 584 303 502T231 335H509Q477 413 445 489T379 643ZM680 0H652Q619 77 587 154T521 308H219Q187 231 155 154T89 0H60Q138 184 215 366T370 732Q448 548 525 366T680
0ZM371 931Q401 886 431 841T491 750H466Q442 785 419 819T371 888Q347 853 324 819T276 750H251Q281 795 311 840T371 931Z" />
<glyph unicode="3;" glyph-name="Atilde" horiz-adv-x="740" d="M379 643L370 670Q339 584 303 502T231 335H509Q477 413 445 489T379 643ZM680 0H652Q619 77 587 154T521 308H219Q187 231 155 154T89 0H60Q138 184 215 366T370 732Q448 548 525 366T680 0ZM357
785Q341 802 330 808T304 814Q296 814 286 812T266 804T249 788T240 761Q235 762 231 762T221 763Q222 782 230 795T250 817T276 830T305 834Q325 834 342 824T375 797Q391 780 403 774T429 768Q436 768 446 770T466 778T483 794T492 821Q497 820 502 820T512 819Q511
800 503 787T483 765T457 752T428 748Q408 748 391 758T357 785Z" />
<glyph unicode="4;" glyph-name="Adieresis" horiz-adv-x="740" d="M379 643L370 670Q339 584 303 502T231 335H509Q477 413 445 489T379 643ZM680 0H652Q619 77 587 154T521 308H219Q187 231 155 154T89 0H60Q138 184 215 366T370 732Q448 548 525 366T680
0ZM428 794Q428 805 435 813T454 821Q465 821 472 813T480 794Q480 783 473 776T454 768Q443 768 436 775T428 794ZM262 794Q262 805 270 813T289 821Q300 821 307 813T315 794Q315 783 308 776T289 768Q278 768 270 775T262 794Z" />
<glyph unicode="5;" glyph-name="Aring" horiz-adv-x="740" d="M325 835Q325 816 339 803T371 789Q390 789 403 802T417 835Q417 853 404 866T371 880Q353 880 339 867T325 835ZM303 835Q303 864 322 883T371 903Q400 903 419 884T439 835Q439 806 420 787T371
767Q342 767 323 786T303 835ZM379 643L370 670Q339 584 303 502T231 335H509Q477 413 445 489T379 643ZM680 0H652Q619 77 587 154T521 308H219Q187 231 155 154T89 0H60Q138 184 215 366T370 732Q448 548 525 366T680 0Z" />
<glyph unicode="6;" glyph-name="AE" horiz-adv-x="790" d="M359 333V642Q330 563 296 487T230 333H359ZM60 0Q135 176 208 350T356 700H685V673H387V366H646V339H387V27H699V0H359V306H218L89 0H60Z" />
<glyph unicode="7;" glyph-name="Ccedilla" horiz-adv-x="670" d="M585 65L601 42Q562 19 517 6T422 -8Q422 -21 426 -29T436 -43T449 -53T463 -61Q486 -76 495 -95T504 -130Q504 -180 479 -204T416 -228Q388 -228 365 -213T330 -167Q335 -165 341 -163T352
-159Q357 -179 374 -192T415 -205Q444 -205 462 -185T481 -136Q481 -110 469 -96T441 -71T413 -50T400 -20V-7Q329 -4 268 25T161 103T89 214T62 349Q62 423 90 488T166 602T280 679T419 708Q470 708 515 695T602 658Q596 648 586 635Q511 681 419 681Q351 681
291 655T187 583T116 478T90 348Q90 280 116 220T186 116T289 45T417 19Q463 19 505 31T585 65Z" />
<glyph unicode="8;" glyph-name="Egrave" horiz-adv-x="601" d="M90 0V700H500V673H118V366H461V339H118V27H514V0H90ZM218 883Q241 850 263 817T308 750H284Q260 783 236 816T189 883H218Z" />
<glyph unicode="9;" glyph-name="Eacute" horiz-adv-x="601" d="M90 0V700H500V673H118V366H461V339H118V27H514V0H90ZM274 750Q297 783 319 816T364 883H394Q370 850 346 817T299 750H274Z" />
<glyph unicode="a;" glyph-name="Ecircumflex" horiz-adv-x="601" d="M90 0V700H500V673H118V366H461V339H118V27H514V0H90ZM300 931Q330 886 360 841T420 750H395Q371 785 348 819T300 888Q276 853 253 819T205 750H180Q210 795 240 840T300 931Z" />
<glyph unicode="b;" glyph-name="Edieresis" horiz-adv-x="601" d="M90 0V700H500V673H118V366H461V339H118V27H514V0H90ZM352 794Q352 805 359 813T378 821Q389 821 396 813T404 794Q404 783 397 776T378 768Q367 768 360 775T352 794ZM186 794Q186 805 194
813T213 821Q224 821 231 813T239 794Q239 783 232 776T213 768Q202 768 194 775T186 794Z" />
<glyph unicode="c;" glyph-name="Igrave" horiz-adv-x="236" d="M105 700H133V0H105V700ZM44 883Q67 850 89 817T134 750H110Q86 783 62 816T15 883H44Z" />
<glyph unicode="d;" glyph-name="Iacute" horiz-adv-x="236" d="M105 700H133V0H105V700ZM101 750Q124 783 146 816T191 883H221Q197 850 173 817T126 750H101Z" />
<glyph unicode="e;" glyph-name="Icircumflex" horiz-adv-x="246" d="M105 700H133V0H105V700ZM120 931Q150 886 180 841T240 750H215Q191 785 168 819T120 888Q96 853 73 819T25 750H0Q30 795 60 840T120 931Z" />
<glyph unicode="f;" glyph-name="Idieresis" horiz-adv-x="236" d="M105 700H133V0H105V700ZM176 794Q176 805 183 813T202 821Q213 821 220 813T228 794Q228 783 221 776T202 768Q191 768 184 775T176 794ZM10 794Q10 805 18 813T37 821Q48 821 55 813T63
794Q63 783 56 776T37 768Q26 768 18 775T10 794Z" />
<glyph unicode="&#xd0;" glyph-name="Eth" horiz-adv-x="646" d="M109 339V27H204Q278 27 342 50T453 115T527 216T554 350Q554 425 528 484T456 586T345 650T204 673H109V366H324V339H109ZM81 366V700H221Q294 700 359 676T474 606T552 495T581 350Q581 291 560
229T492 116T369 33T186 0H81V339H22V366H81Z" />
<glyph unicode="&#xd1;" glyph-name="Ntilde" horiz-adv-x="813" d="M711 700V-32Q568 136 428 302T144 638Q139 645 135 651T125 664Q126 656 126 648T128 632V0H100V732Q243 561 383 395T667 58Q672 51 676 45T686 32Q685 40 685 48T683 64V700H711ZM403 787Q387
804 376 810T350 816Q342 816 332 814T312 806T295 790T286 763Q281 764 277 764T267 765Q268 784 276 797T296 819T322 832T351 836Q371 836 388 826T421 799Q437 782 449 776T475 770Q482 770 492 772T512 780T529 796T538 823Q543 822 548 822T558 821Q557 802
549 789T529 767T503 754T474 750Q454 750 437 760T403 787Z" />
<glyph unicode="&#xd2;" glyph-name="Ograve" horiz-adv-x="839" d="M62 349Q62 423 90 488T166 602T280 679T419 708Q493 708 558 680T672 603T749 489T778 349Q778 275 750 210T673 97T559 20T419 -8Q345 -8 280 20T167 96T90 210T62 349ZM90 348Q90 280 116
220T186 116T289 45T417 19Q485 19 545 45T651 116T723 221T750 349Q750 417 724 477T653 583T548 654T419 681Q351 681 291 655T187 583T116 478T90 348ZM344 883Q367 850 389 817T434 750H410Q386 783 362 816T315 883H344Z" />
<glyph unicode="&#xd3;" glyph-name="Oacute" horiz-adv-x="840" d="M62 349Q62 423 90 488T166 602T280 679T419 708Q493 708 558 680T672 603T749 489T778 349Q778 275 750 210T673 97T559 20T419 -8Q345 -8 280 20T167 96T90 210T62 349ZM90 348Q90 280 116
220T186 116T289 45T417 19Q485 19 545 45T651 116T723 221T750 349Q750 417 724 477T653 583T548 654T419 681Q351 681 291 655T187 583T116 478T90 348ZM400 750Q423 783 445 816T490 883H520Q496 850 472 817T425 750H400Z" />
<glyph unicode="&#xd4;" glyph-name="Ocircumflex" horiz-adv-x="839" d="M62 349Q62 423 90 488T166 602T280 679T419 708Q493 708 558 680T672 603T749 489T778 349Q778 275 750 210T673 97T559 20T419 -8Q345 -8 280 20T167 96T90 210T62 349ZM90 348Q90 280
116 220T186 116T289 45T417 19Q485 19 545 45T651 116T723 221T750 349Q750 417 724 477T653 583T548 654T419 681Q351 681 291 655T187 583T116 478T90 348ZM416 931Q446 886 476 841T536 750H511Q487 785 464 819T416 888Q392 853 369 819T321 750H296Q326 795
356 840T416 931Z" />
<glyph unicode="&#xd5;" glyph-name="Otilde" horiz-adv-x="839" d="M62 349Q62 423 90 488T166 602T280 679T419 708Q493 708 558 680T672 603T749 489T778 349Q778 275 750 210T673 97T559 20T419 -8Q345 -8 280 20T167 96T90 210T62 349ZM90 348Q90 280 116
220T186 116T289 45T417 19Q485 19 545 45T651 116T723 221T750 349Q750 417 724 477T653 583T548 654T419 681Q351 681 291 655T187 583T116 478T90 348ZM407 821Q391 838 380 844T354 850Q346 850 336 848T316 840T299 824T290 797Q285 798 281 798T271 799Q272
818 280 831T300 853T326 866T355 870Q375 870 392 860T425 833Q441 816 453 810T479 804Q486 804 496 806T516 814T533 830T542 857Q547 856 552 856T562 855Q561 836 553 823T533 801T507 788T478 784Q458 784 441 794T407 821Z" />
<glyph unicode="&#xd6;" glyph-name="Odieresis" horiz-adv-x="839" d="M62 349Q62 423 90 488T166 602T280 679T419 708Q493 708 558 680T672 603T749 489T778 349Q778 275 750 210T673 97T559 20T419 -8Q345 -8 280 20T167 96T90 210T62 349ZM90 348Q90 280
116 220T186 116T289 45T417 19Q485 19 545 45T651 116T723 221T750 349Q750 417 724 477T653 583T548 654T419 681Q351 681 291 655T187 583T116 478T90 348ZM476 794Q476 805 483 813T502 821Q513 821 520 813T528 794Q528 783 521 776T502 768Q491 768 484 775T476
794ZM310 794Q310 805 318 813T337 821Q348 821 355 813T363 794Q363 783 356 776T337 768Q326 768 318 775T310 794Z" />
<glyph unicode="&#xd7;" glyph-name="multiply" horiz-adv-x="500" d="M381 0Q351 29 322 59T263 118Q233 89 204 59T146 0Q135 9 126 20Q155 49 184 78T243 138L127 254L146 274L263 157Q292 187 322 216T381 275Q386 270 390 265T400 255L283 138Q312 109 341
79T401 20L381 0Z" />
<glyph unicode="&#xd8;" glyph-name="Oslash" horiz-adv-x="840" d="M90 348Q90 276 117 215T192 109Q299 237 404 361T616 614Q574 646 524 663T419 681Q351 681 291 655T187 583T116 478T90 348ZM417 19Q485 19 545 45T651 116T723 221T750 349Q750 424 719
488T635 598Q529 471 423 346T211 93Q254 58 305 39T417 19ZM62 349Q62 423 90 488T166 602T280 679T419 708Q480 708 535 689T635 635Q651 654 666 672T697 710Q702 705 706 702T716 694Q700 675 685 657T654 620Q711 570 744 500T778 349Q778 275 750 210T673
97T559 20T419 -8Q355 -8 298 13T194 72Q177 52 160 31T125 -10Q120 -5 116 -2T106 7Q124 27 141 48T175 89Q122 137 92 204T62 349Z" />
<glyph unicode="&#xd9;" glyph-name="Ugrave" horiz-adv-x="652" d="M329 -8Q279 -8 237 7T165 51T117 125T99 226V700H127V229Q127 178 142 139T184 74T248 33T329 19Q373 19 410 33T474 73T516 139T532 229V700H560V226Q560 169 542 125T493 52T420 7T329 -8ZM253
883Q276 850 298 817T343 750H319Q295 783 271 816T224 883H253Z" />
<glyph unicode="&#xda;" glyph-name="Uacute" horiz-adv-x="652" d="M329 -8Q279 -8 237 7T165 51T117 125T99 226V700H127V229Q127 178 142 139T184 74T248 33T329 19Q373 19 410 33T474 73T516 139T532 229V700H560V226Q560 169 542 125T493 52T420 7T329 -8ZM300
750Q323 783 345 816T390 883H420Q396 850 372 817T325 750H300Z" />
<glyph unicode="&#xdb;" glyph-name="Ucircumflex" horiz-adv-x="652" d="M329 -8Q279 -8 237 7T165 51T117 125T99 226V700H127V229Q127 178 142 139T184 74T248 33T329 19Q373 19 410 33T474 73T516 139T532 229V700H560V226Q560 169 542 125T493 52T420 7T329
-8ZM326 971Q356 926 386 881T446 790H421Q397 825 374 859T326 928Q302 893 279 859T231 790H206Q236 835 266 880T326 971Z" />
<glyph unicode="&#xdc;" glyph-name="Udieresis" horiz-adv-x="652" d="M329 -8Q279 -8 237 7T165 51T117 125T99 226V700H127V229Q127 178 142 139T184 74T248 33T329 19Q373 19 410 33T474 73T516 139T532 229V700H560V226Q560 169 542 125T493 52T420 7T329
-8ZM386 794Q386 805 393 813T412 821Q423 821 430 813T438 794Q438 783 431 776T412 768Q401 768 394 775T386 794ZM220 794Q220 805 228 813T247 821Q258 821 265 813T273 794Q273 783 266 776T247 768Q236 768 228 775T220 794Z" />
<glyph unicode="&#xdd;" glyph-name="Yacute" horiz-adv-x="638" d="M334 263V0H302V264Q236 373 172 482T41 700H75Q133 603 191 507T306 314L318 287H319Q322 294 324 300T330 314Q388 411 445 507T560 700H594Q529 590 464 482T334 263ZM299 750Q322 783 344
816T389 883H419Q395 850 371 817T324 750H299Z" />
<glyph unicode="&#xde;" glyph-name="Thorn" horiz-adv-x="501" d="M128 197H237Q292 197 328 212T386 250T416 301T425 355Q425 385 411 413T371 462T312 495T238 508H128V197ZM128 0H100V700H128V535H245Q275 535 311 525T378 494T431 438T452 355Q452 270 397
220T239 170H128V0Z" />
<glyph unicode="&#xdf;" glyph-name="germandbls" horiz-adv-x="573" d="M179 19Q181 26 184 31T190 43Q231 18 279 18Q316 18 349 32T407 71T446 129T461 198Q461 234 447 265T409 321T351 359T281 373V387V401Q305 401 326 409T363 431T388 464T398 508Q398
532 390 554T366 593T329 620T282 630Q249 630 220 616T168 576T132 512T119 428V0H91V363H27V390H91V425Q91 480 106 523T148 595T208 641T281 658Q311 657 337 646T382 614T413 568T425 511Q425 469 403 437T343 389Q374 380 400 362T446 319T477 263T488 198Q488
155 472 118T427 52T361 8T281 -8Q252 -8 227 -1T179 19Z" />
<glyph unicode="&#xe0;" glyph-name="agrave" horiz-adv-x="551" d="M77 188Q77 153 90 123T125 70T178 34T244 21Q279 21 310 34T364 69T400 122T413 188Q413 223 400 253T364 307T310 343T244 356Q209 356 179 343T126 307T90 254T77 188ZM49 188Q49 228 64
263T105 325T167 367T244 383Q274 383 301 375T350 351T389 316T415 274Q415 299 416 324T419 375H440V0H415V50V102Q398 57 353 26T244 -7Q203 -7 168 8T106 50T64 111T49 188ZM173 612Q196 579 218 546T263 479H239Q215 512 191 545T144 612H173Z" />
<glyph unicode="&#xe1;" glyph-name="aacute" horiz-adv-x="551" d="M77 188Q77 153 90 123T125 70T178 34T244 21Q279 21 310 34T364 69T400 122T413 188Q413 223 400 253T364 307T310 343T244 356Q209 356 179 343T126 307T90 254T77 188ZM49 188Q49 228 64
263T105 325T167 367T244 383Q274 383 301 375T350 351T389 316T415 274Q415 299 416 324T419 375H440V0H415V50V102Q398 57 353 26T244 -7Q203 -7 168 8T106 50T64 111T49 188ZM232 479Q255 512 277 545T322 612H352Q328 579 304 546T257 479H232Z" />
<glyph unicode="&#xe2;" glyph-name="acircumflex" horiz-adv-x="551" d="M77 188Q77 153 90 123T125 70T178 34T244 21Q279 21 310 34T364 69T400 122T413 188Q413 223 400 253T364 307T310 343T244 356Q209 356 179 343T126 307T90 254T77 188ZM49 188Q49 228
64 263T105 325T167 367T244 383Q274 383 301 375T350 351T389 316T415 274Q415 299 416 324T419 375H440V0H415V50V102Q398 57 353 26T244 -7Q203 -7 168 8T106 50T64 111T49 188ZM261 660Q291 615 321 570T381 479H356Q332 514 309 548T261 617Q237 582 214 548T166
479H141Q171 524 201 569T261 660Z" />
<glyph unicode="&#xe3;" glyph-name="atilde" horiz-adv-x="551" d="M77 188Q77 153 90 123T125 70T178 34T244 21Q279 21 310 34T364 69T400 122T413 188Q413 223 400 253T364 307T310 343T244 356Q209 356 179 343T126 307T90 254T77 188ZM49 188Q49 228 64
263T105 325T167 367T244 383Q274 383 301 375T350 351T389 316T415 274Q415 299 416 324T419 375H440V0H415V50V102Q398 57 353 26T244 -7Q203 -7 168 8T106 50T64 111T49 188ZM517 494Q501 511 490 517T464 523Q456 523 446 521T426 513T409 497T400 470Q395
471 391 471T381 472Q382 491 390 504T410 526T436 539T465 543Q485 543 502 533T535 506Q551 489 563 483T589 477Q596 477 606 479T626 487T643 503T652 530Q657 529 662 529T672 528Q671 509 663 496T643 474T617 461T588 457Q568 457 551 467T517 494Z" />
<glyph unicode="&#xe4;" glyph-name="adieresis" horiz-adv-x="551" d="M77 188Q77 153 90 123T125 70T178 34T244 21Q279 21 310 34T364 69T400 122T413 188Q413 223 400 253T364 307T310 343T244 356Q209 356 179 343T126 307T90 254T77 188ZM49 188Q49 228
64 263T105 325T167 367T244 383Q274 383 301 375T350 351T389 316T415 274Q415 299 416 324T419 375H440V0H415V50V102Q398 57 353 26T244 -7Q203 -7 168 8T106 50T64 111T49 188ZM320 504Q320 515 327 523T346 531Q357 531 364 523T372 504Q372 493 365 486T346
478Q335 478 328 485T320 504ZM154 504Q154 515 162 523T181 531Q192 531 199 523T207 504Q207 493 200 486T181 478Q170 478 162 485T154 504Z" />
<glyph unicode="&#xe5;" glyph-name="aring" horiz-adv-x="551" d="M204 540Q204 521 218 508T250 494Q269 494 282 507T296 540Q296 558 283 572T250 586Q232 586 218 572T204 540ZM182 540Q182 569 201 588T250 608Q279 608 298 589T318 540Q318 511 299 492T250
472Q221 472 202 491T182 540ZM77 188Q77 153 90 123T125 70T178 34T244 21Q279 21 310 34T364 69T400 122T413 188Q413 223 400 253T364 307T310 343T244 356Q209 356 179 343T126 307T90 254T77 188ZM49 188Q49 228 64 263T105 325T167 367T244 383Q274 383 301
375T350 351T389 316T415 274Q415 299 416 324T419 375H440V0H415V50V102Q398 57 353 26T244 -7Q203 -7 168 8T106 50T64 111T49 188Z" />
<glyph unicode="&#xe6;" glyph-name="ae" horiz-adv-x="629" d="M360 243V199Q402 216 444 232T529 266Q510 306 474 331T394 356Q362 356 331 343Q348 329 354 304T360 243ZM332 170H246Q230 170 202 170T145 165T97 145T76 101Q76 75 88 59T120 34T163 22T207
19Q229 19 251 23T292 36T321 63T332 108V170ZM96 322Q91 327 86 332T76 343Q86 351 101 358T133 371T169 380T205 383Q241 383 267 379T311 365Q348 383 394 383Q453 383 499 347T564 251Q513 231 462 211T360 169V149V130Q360 96 353 74T326 34Q342 28 358 25T394
21Q427 21 456 33T508 67Q513 61 517 56T526 46Q500 22 467 8T394 -6Q345 -6 307 13Q271 -8 205 -8Q170 -8 141 -3T92 15T60 48T48 101Q48 129 60 147T94 177T141 194T197 199H332V245Q332 273 328 293T310 328T271 349T204 356Q190 356 175 353T144 346T116 335T96
322Z" />
<glyph unicode="&#xe7;" glyph-name="ccedilla" horiz-adv-x="385" d="M337 57Q341 52 345 47T355 36Q304 -3 239 -7Q239 -33 253 -43T280 -61Q303 -76 312 -95T321 -130Q321 -178 298 -201T241 -227Q224 -228 206 -224Q186 -218 171 -204T148 -167Q153 -165 158
-163T169 -159Q175 -179 191 -192T232 -205Q261 -205 279 -185T298 -136Q298 -110 286 -96T258 -71T231 -50T218 -20V-5Q180 -3 147 13T89 55T50 115T36 188Q36 228 51 264T93 326T154 367T231 383Q267 383 298 372T355 340Q350 335 346 330T337 319Q315 336 288
346T231 356Q196 356 166 343T113 307T77 254T64 188Q64 153 77 123T112 70T165 34T231 21Q262 21 288 30T337 57Z" />
<glyph unicode="&#xe8;" glyph-name="egrave" horiz-adv-x="451" d="M231 356Q197 356 168 344T116 310T80 259T65 197Q64 183 65 171T69 147Q144 177 217 206T366 266Q347 306 312 331T231 356ZM402 251Q321 218 240 186T78 121Q97 76 137 49T231 21Q265 21 294
33T346 66Q350 61 354 56T363 46Q337 21 304 7T231 -7Q190 -7 155 8T93 50T52 111T36 188Q36 228 51 264T93 326T154 367T231 383Q291 383 336 346T402 251ZM142 612Q165 579 187 546T232 479H208Q184 512 160 545T113 612H142Z" />
<glyph unicode="&#xe9;" glyph-name="eacute" horiz-adv-x="451" d="M231 356Q197 356 168 344T116 310T80 259T65 197Q64 183 65 171T69 147Q144 177 217 206T366 266Q347 306 312 331T231 356ZM402 251Q321 218 240 186T78 121Q97 76 137 49T231 21Q265 21 294
33T346 66Q350 61 354 56T363 46Q337 21 304 7T231 -7Q190 -7 155 8T93 50T52 111T36 188Q36 228 51 264T93 326T154 367T231 383Q291 383 336 346T402 251ZM230 479Q253 512 275 545T320 612H350Q326 579 302 546T255 479H230Z" />
<glyph unicode="&#xea;" glyph-name="ecircumflex" horiz-adv-x="451" d="M231 356Q197 356 168 344T116 310T80 259T65 197Q64 183 65 171T69 147Q144 177 217 206T366 266Q347 306 312 331T231 356ZM402 251Q321 218 240 186T78 121Q97 76 137 49T231 21Q265
21 294 33T346 66Q350 61 354 56T363 46Q337 21 304 7T231 -7Q190 -7 155 8T93 50T52 111T36 188Q36 228 51 264T93 326T154 367T231 383Q291 383 336 346T402 251ZM232 660Q262 615 292 570T352 479H327Q303 514 280 548T232 617Q208 582 185 548T137 479H112Q142
524 172 569T232 660Z" />
<glyph unicode="&#xeb;" glyph-name="edieresis" horiz-adv-x="451" d="M231 356Q197 356 168 344T116 310T80 259T65 197Q64 183 65 171T69 147Q144 177 217 206T366 266Q347 306 312 331T231 356ZM402 251Q321 218 240 186T78 121Q97 76 137 49T231 21Q265 21
294 33T346 66Q350 61 354 56T363 46Q337 21 304 7T231 -7Q190 -7 155 8T93 50T52 111T36 188Q36 228 51 264T93 326T154 367T231 383Q291 383 336 346T402 251ZM286 504Q286 515 293 523T312 531Q323 531 330 523T338 504Q338 493 331 486T312 478Q301 478 294
485T286 504ZM120 504Q120 515 128 523T147 531Q158 531 165 523T173 504Q173 493 166 486T147 478Q136 478 128 485T120 504Z" />
<glyph unicode="&#xec;" glyph-name="igrave" horiz-adv-x="174" d="M108 0H80V375H108V0ZM16 612Q39 579 61 546T106 479H82Q58 512 34 545T-13 612H16Z" />
<glyph unicode="&#xed;" glyph-name="iacute" horiz-adv-x="199" d="M103 0H75V375H103V0ZM78 479Q101 512 123 545T168 612H198Q174 579 150 546T103 479H78Z" />
<glyph unicode="&#xee;" glyph-name="icircumflex" horiz-adv-x="239" d="M130 0H102V375H130V0ZM116 660Q146 615 176 570T236 479H211Q187 514 164 548T116 617Q92 582 69 548T21 479H-4Q26 524 56 569T116 660Z" />
<glyph unicode="&#xef;" glyph-name="idieresis" horiz-adv-x="271" d="M159 0H131V375H159V0ZM198 504Q198 515 205 523T224 531Q235 531 242 523T250 504Q250 493 243 486T224 478Q213 478 206 485T198 504ZM32 504Q32 515 40 523T59 531Q70 531 77 523T85 504Q85
493 78 486T59 478Q48 478 40 485T32 504Z" />
<glyph unicode="&#xf0;" glyph-name="eth" horiz-adv-x="493" d="M80 188Q80 153 93 123T128 70T182 34T248 21Q283 21 314 34T367 70T403 123T416 189Q416 224 403 255T366 308T313 343T247 356Q212 356 182 343T129 307T93 254T80 188ZM143 544Q161 563 179
582T215 621Q193 645 170 667T121 710Q126 715 130 719T138 728Q163 710 186 688T233 641Q250 659 266 676T298 712Q303 708 307 704T316 696Q299 678 283 660T249 622Q288 575 323 522T385 412T427 300T443 190Q443 149 428 114T387 52T325 10T249 -6Q208 -6 173
8T110 49T68 111T52 187Q52 227 67 263T108 325T169 368T246 384Q291 384 328 364T389 312Q376 365 339 441T230 602L161 527Q156 532 152 535T143 544Z" />
<glyph unicode="&#xf1;" glyph-name="ntilde" horiz-adv-x="523" d="M110 375H136V331Q135 317 135 304T135 277Q155 325 199 353T299 382Q353 382 384 351T418 270V0H390V268Q388 303 365 328T299 355Q267 355 238 345T186 315T151 270T138 212V0H110V375ZM272
740Q256 757 245 763T219 769Q211 769 201 767T181 759T164 743T155 716Q150 717 146 717T136 718Q137 737 145 750T165 772T191 785T220 789Q240 789 257 779T290 752Q306 735 318 729T344 723Q351 723 361 725T381 733T398 749T407 776Q412 775 417 775T427 774Q426
755 418 742T398 720T372 707T343 703Q323 703 306 713T272 740Z" />
<glyph unicode="&#xf2;" glyph-name="ograve" horiz-adv-x="469" d="M36 188Q36 228 51 264T93 326T154 368T231 384Q272 384 308 369T370 327T412 264T428 188Q428 147 413 112T371 50T308 9T231 -7Q190 -7 155 8T93 50T52 111T36 188ZM64 188Q64 153 77 123T112
70T165 34T231 21Q266 21 296 34T350 69T386 122T399 188Q399 223 386 253T350 307T297 343T231 356Q196 356 166 343T113 307T77 254T64 188ZM142 612Q165 579 187 546T232 479H208Q184 512 160 545T113 612H142Z" />
<glyph unicode="&#xf3;" glyph-name="oacute" horiz-adv-x="469" d="M36 188Q36 228 51 264T93 326T154 368T231 384Q272 384 308 369T370 327T412 264T428 188Q428 147 413 112T371 50T308 9T231 -7Q190 -7 155 8T93 50T52 111T36 188ZM64 188Q64 153 77 123T112
70T165 34T231 21Q266 21 296 34T350 69T386 122T399 188Q399 223 386 253T350 307T297 343T231 356Q196 356 166 343T113 307T77 254T64 188ZM231 479Q254 512 276 545T321 612H351Q327 579 303 546T256 479H231Z" />
<glyph unicode="&#xf4;" glyph-name="ocircumflex" horiz-adv-x="469" d="M36 188Q36 228 51 264T93 326T154 368T231 384Q272 384 308 369T370 327T412 264T428 188Q428 147 413 112T371 50T308 9T231 -7Q190 -7 155 8T93 50T52 111T36 188ZM64 188Q64 153 77
123T112 70T165 34T231 21Q266 21 296 34T350 69T386 122T399 188Q399 223 386 253T350 307T297 343T231 356Q196 356 166 343T113 307T77 254T64 188ZM487 660Q517 615 547 570T607 479H582Q558 514 535 548T487 617Q463 582 440 548T392 479H367Q397 524 427
569T487 660Z" />
<glyph unicode="&#xf5;" glyph-name="otilde" horiz-adv-x="469" d="M36 188Q36 228 51 264T93 326T154 368T231 384Q272 384 308 369T370 327T412 264T428 188Q428 147 413 112T371 50T308 9T231 -7Q190 -7 155 8T93 50T52 111T36 188ZM64 188Q64 153 77 123T112
70T165 34T231 21Q266 21 296 34T350 69T386 122T399 188Q399 223 386 253T350 307T297 343T231 356Q196 356 166 343T113 307T77 254T64 188ZM482 494Q466 511 455 517T429 523Q421 523 411 521T391 513T374 497T365 470Q360 471 356 471T346 472Q347 491 355
504T375 526T401 539T430 543Q450 543 467 533T500 506Q516 489 528 483T554 477Q561 477 571 479T591 487T608 503T617 530Q622 529 627 529T637 528Q636 509 628 496T608 474T582 461T553 457Q533 457 516 467T482 494Z" />
<glyph unicode="&#xf6;" glyph-name="odieresis" horiz-adv-x="469" d="M36 188Q36 228 51 264T93 326T154 368T231 384Q272 384 308 369T370 327T412 264T428 188Q428 147 413 112T371 50T308 9T231 -7Q190 -7 155 8T93 50T52 111T36 188ZM64 188Q64 153 77 123T112
70T165 34T231 21Q266 21 296 34T350 69T386 122T399 188Q399 223 386 253T350 307T297 343T231 356Q196 356 166 343T113 307T77 254T64 188ZM291 504Q291 515 298 523T317 531Q328 531 335 523T343 504Q343 493 336 486T317 478Q306 478 299 485T291 504ZM125
504Q125 515 133 523T152 531Q163 531 170 523T178 504Q178 493 171 486T152 478Q141 478 133 485T125 504Z" />
<glyph unicode="&#xf7;" glyph-name="divide" horiz-adv-x="501" d="M428 209H68V237H428V209ZM225 347Q225 358 232 366T251 374Q262 374 269 366T277 347Q277 336 270 329T251 321Q240 321 233 328T225 347ZM225 97Q225 108 232 116T251 124Q262 124 269 116T277
97Q277 86 270 79T251 71Q240 71 233 78T225 97Z" />
<glyph unicode="&#xf8;" glyph-name="oslash" horiz-adv-x="468" d="M64 188Q64 153 76 124T110 71Q164 135 217 199T324 327Q304 341 281 348T231 356Q196 356 166 343T113 307T77 254T64 188ZM231 21Q266 21 297 34T350 69T386 122T399 188Q399 226 384 258T342
313Q288 249 234 185T126 57Q171 21 231 21ZM36 188Q36 228 51 264T93 326T154 367T231 383Q263 383 291 374T343 348Q351 358 359 367T375 387Q380 383 383 380T392 372Q384 363 376 354T360 335Q391 309 409 271T427 188Q427 147 412 112T370 50T308 9T231 -7Q196
-7 165 4T109 36Q98 24 89 12T69 -12Q65 -8 61 -5T53 2Q63 15 72 26T92 50Q66 76 51 111T36 188Z" />
<glyph unicode="&#xf9;" glyph-name="ugrave" horiz-adv-x="529" d="M418 -2H390V53L393 98Q373 50 329 22T229 -7Q175 -7 144 24T110 105V375H138V107Q140 72 163 47T229 20Q261 20 290 30T342 60T377 105T390 163V375H418V-2ZM195 612Q218 579 240 546T285 479H261Q237
512 213 545T166 612H195Z" />
<glyph unicode="&#xfa;" glyph-name="uacute" horiz-adv-x="529" d="M418 -2H390V53L393 98Q373 50 329 22T229 -7Q175 -7 144 24T110 105V375H138V107Q140 72 163 47T229 20Q261 20 290 30T342 60T377 105T390 163V375H418V-2ZM231 479Q254 512 276 545T321 612H351Q327
579 303 546T256 479H231Z" />
<glyph unicode="&#xfb;" glyph-name="ucircumflex" horiz-adv-x="529" d="M418 -2H390V53L393 98Q373 50 329 22T229 -7Q175 -7 144 24T110 105V375H138V107Q140 72 163 47T229 20Q261 20 290 30T342 60T377 105T390 163V375H418V-2ZM266 660Q296 615 326 570T386
479H361Q337 514 314 548T266 617Q242 582 219 548T171 479H146Q176 524 206 569T266 660Z" />
<glyph unicode="&#xfc;" glyph-name="udieresis" horiz-adv-x="529" d="M418 -2H390V53L393 98Q373 50 329 22T229 -7Q175 -7 144 24T110 105V375H138V107Q140 72 163 47T229 20Q261 20 290 30T342 60T377 105T390 163V375H418V-2ZM317 504Q317 515 324 523T343
531Q354 531 361 523T369 504Q369 493 362 486T343 478Q332 478 325 485T317 504ZM151 504Q151 515 159 523T178 531Q189 531 196 523T204 504Q204 493 197 486T178 478Q167 478 159 485T151 504Z" />
<glyph unicode="&#xfd;" glyph-name="yacute" horiz-adv-x="488" d="M139 -250H107Q139 -188 169 -127T231 -3L42 375H73Q117 288 161 201T247 26Q288 114 332 201T420 375H451Q373 218 295 63T139 -250ZM241 479Q264 512 286 545T331 612H361Q337 579 313 546T266
479H241Z" />
<glyph unicode="&#xfe;" glyph-name="thorn" horiz-adv-x="557" d="M430 187Q430 222 417 252T382 305T329 341T263 354Q228 354 197 341T144 306T108 253T95 187Q95 152 108 122T143 68T197 32T263 19Q298 19 328 32T381 68T417 121T430 187ZM458 187Q458 146
443 111T402 49T340 8T263 -8Q232 -8 205 0T156 24T117 58T93 100Q93 88 94 76T96 53V-250H67V750H95V329Q94 315 94 300T92 271Q101 293 117 313T155 348T205 372T263 381Q304 381 339 366T401 324T443 263T458 187Z" />
<glyph unicode="&#xff;" glyph-name="ydieresis" horiz-adv-x="488" d="M139 -250H107Q139 -188 169 -127T231 -3L42 375H73Q117 288 161 201T247 26Q288 114 332 201T420 375H451Q373 218 295 63T139 -250ZM312 504Q312 515 319 523T338 531Q349 531 356 523T364
504Q364 493 357 486T338 478Q327 478 320 485T312 504ZM146 504Q146 515 154 523T173 531Q184 531 191 523T199 504Q199 493 192 486T173 478Q162 478 154 485T146 504Z" />
</font>
</defs>
</svg>
